# xmcd
# 
# Track frame offsets:
#     150
#     30290
#     60209
#     83158
#     104846
#     132313
#     155816
#     181582
# 
# Disc length: 2755
# 
# Revision: 1
# Processed by: cddbd v1.5.2PL0 Copyright (c) Steve Scherf et al.
# Submitted via: fre:ac v1.0.17
# 
DISCID=5c0ac108
DTITLE=Orchestra of chord Zithers, Monochord, Bamboo-flute and 2-chord fiddles - Returning the countryside
DYEAR=2006
DGENRE=Folklore
TTITLE0=Returning the Countryside
TTITLE1=The rain in Hue City
TTITLE2=Mother´s heart
TTITLE3=Missing the fatherland
TTITLE4=Lulling the moon
TTITLE5=The singing Pac Bo forest
TTITLE6=White summer
TTITLE7=The image of ben Tre´s girl
EXTD=
EXTT0=
EXTT1=
EXTT2=
EXTT3=
EXTT4=
EXTT5=
EXTT6=
EXTT7=
PLAYORDER=
